<svg width="19" height="18" viewBox="0 0 19 18" fill="none" xmlns="http://www.w3.org/2000/svg">
<g id="Group 794">
<path id="Vector" d="M8.03062 1C6.73898 1 5.47636 1.38301 4.4024 2.10061C3.32845 2.8182 2.4914 3.83815 1.99712 5.03146C1.50283 6.22478 1.3735 7.53787 1.62549 8.80468C1.87747 10.0715 2.49945 11.2351 3.41278 12.1485C4.3261 13.0618 5.48974 13.6838 6.75656 13.9358C8.02337 14.1877 9.33646 14.0584 10.5298 13.5641C11.7231 13.0698 12.743 12.2328 13.4606 11.1588C14.1782 10.0849 14.5612 8.82226 14.5612 7.53062C14.5611 5.79863 13.873 4.1376 12.6483 2.9129C11.4236 1.68819 9.76261 1.00011 8.03062 1Z" stroke="black" stroke-width="1.5" stroke-miterlimit="10"/>
<path id="Vector_2" d="M12.9287 12.4286L17.5001 17" stroke="black" stroke-width="1.5" stroke-miterlimit="10" stroke-linecap="round"/>
</g>
</svg>
